<svg width="38" height="25" viewBox="0 0 38 25" fill="none" xmlns="http://www.w3.org/2000/svg">
<path d="M37.554 14.5498C37.3451 16.4436 35.03 17.0924 33.8985 17.1801C32.8541 19.8104 28.3108 25.0184 18.4931 24.808C8.67539 24.5975 5.17653 18.5829 4.65432 15.6019C3.34877 15.2512 0.789906 14.0238 0.998791 11.9195C1.20768 9.8153 3.52285 9.46459 4.65432 9.55227C6.0469 6.30824 11.2865 -0.0219936 21.1042 0.609278C30.9219 1.24055 33.8985 7.88642 34.1596 11.1304C35.3781 11.4811 37.7629 12.656 37.554 14.5498Z" fill="#C2D052"/>
<path d="M27.645 8.50649C27.645 8.21596 27.8788 7.98044 28.1672 7.98044C28.4556 7.98044 28.6895 8.21596 28.6895 8.50649C28.6895 8.79701 28.4556 9.03253 28.1672 9.03253C27.8788 9.03253 27.645 8.79701 27.645 8.50649Z" fill="#F4FF9E"/>
<path d="M24.5123 6.40205C24.5123 6.11153 24.7461 5.87601 25.0345 5.87601C25.3229 5.87601 25.5566 6.11153 25.5566 6.40205C25.5566 6.69258 25.3229 6.9281 25.0345 6.9281C24.7461 6.9281 24.5123 6.69258 24.5123 6.40205Z" fill="#F4FF9E"/>
<path d="M26.6005 5.34912C26.6005 5.05858 26.8344 4.82306 27.1228 4.82306C27.4112 4.82306 27.645 5.05858 27.645 5.34912C27.645 5.63966 27.4112 5.87518 27.1228 5.87518C26.8344 5.87518 26.6005 5.63966 26.6005 5.34912Z" fill="#F4FF9E"/>
<path d="M28.6894 6.92915C28.6894 6.63863 28.9232 6.40311 29.2117 6.40311C29.5001 6.40311 29.7339 6.63863 29.7339 6.92915C29.7339 7.21968 29.5001 7.4552 29.2117 7.4552C28.9232 7.4552 28.6894 7.21968 28.6894 6.92915Z" fill="#F4FF9E"/>
<path d="M21.3794 6.40205C21.3794 6.11153 21.6132 5.87601 21.9016 5.87601C22.19 5.87601 22.4238 6.11153 22.4238 6.40205C22.4238 6.69258 22.19 6.9281 21.9016 6.9281C21.6132 6.9281 21.3794 6.69258 21.3794 6.40205Z" fill="#F4FF9E"/>
<path d="M22.9468 4.29838C22.9468 4.00784 23.1806 3.77231 23.469 3.77231C23.7574 3.77231 23.9912 4.00784 23.9912 4.29838C23.9912 4.58893 23.7574 4.82446 23.469 4.82446C23.1806 4.82446 22.9468 4.58893 22.9468 4.29838Z" fill="#F4FF9E"/>
<path d="M23.99 8.77058C23.99 8.33477 24.3407 7.98147 24.7733 7.98147C25.2059 7.98147 25.5566 8.33477 25.5566 8.77058C25.5566 9.2064 25.2059 9.55969 24.7733 9.55969C24.3407 9.55969 23.99 9.2064 23.99 8.77058Z" fill="#F4FF9E"/>
<path d="M19.2893 4.03539C19.2893 3.59959 19.64 3.24631 20.0726 3.24631C20.5053 3.24631 20.856 3.59959 20.856 4.03539C20.856 4.47118 20.5053 4.82446 20.0726 4.82446C19.64 4.82446 19.2893 4.47118 19.2893 4.03539Z" fill="#F4FF9E"/>
<path d="M29.7346 9.82134C29.7346 9.38554 30.0853 9.03226 30.5179 9.03226C30.9506 9.03226 31.3013 9.38554 31.3013 9.82134C31.3013 10.2571 30.9506 10.6104 30.5179 10.6104C30.0853 10.6104 29.7346 10.2571 29.7346 9.82134Z" fill="#F4FF9E"/>
</svg>
