<svg width="80" height="52" viewBox="0 0 80 52" fill="none" xmlns="http://www.w3.org/2000/svg">
<path d="M0.535718 22.0638C0.984522 18.0201 5.95877 16.6348 8.38979 16.4476C10.6338 10.8314 20.3953 -0.288619 41.4891 0.160675C62.5829 0.609969 70.1004 13.4523 71.2224 19.8173C74.0274 20.5661 79.5252 23.187 79.0764 27.68C78.6276 32.1729 73.6534 32.9217 71.2224 32.7345C68.2303 39.6611 56.9728 53.1774 35.879 51.8295C14.7853 50.4816 8.38979 36.2914 7.82878 29.3648C5.21076 28.616 0.0869136 26.1074 0.535718 22.0638Z" fill="#FED151"/>
<path d="M21.8257 34.9689C21.8257 35.5892 21.3233 36.092 20.7036 36.092C20.0839 36.092 19.5815 35.5892 19.5815 34.9689C19.5815 34.3486 20.0839 33.8457 20.7036 33.8457C21.3233 33.8457 21.8257 34.3486 21.8257 34.9689Z" fill="#FEE79C"/>
<path d="M28.5573 39.4601C28.5573 40.0804 28.0549 40.5833 27.4353 40.5833C26.8156 40.5833 26.3132 40.0804 26.3132 39.4601C26.3132 38.8398 26.8156 38.3369 27.4353 38.3369C28.0549 38.3369 28.5573 38.8398 28.5573 39.4601Z" fill="#FEE79C"/>
<path d="M24.0702 41.7102C24.0702 42.3306 23.5679 42.8335 22.9482 42.8335C22.3285 42.8335 21.8262 42.3306 21.8262 41.7102C21.8262 41.0898 22.3285 40.5869 22.9482 40.5869C23.5679 40.5869 24.0702 41.0898 24.0702 41.7102Z" fill="#FEE79C"/>
<path d="M19.5815 38.3406C19.5815 38.9609 19.0791 39.4638 18.4594 39.4638C17.8398 39.4638 17.3374 38.9609 17.3374 38.3406C17.3374 37.7202 17.8398 37.2173 18.4594 37.2173C19.0791 37.2173 19.5815 37.7202 19.5815 38.3406Z" fill="#FEE79C"/>
<path d="M35.2913 39.4601C35.2913 40.0804 34.789 40.5833 34.1694 40.5833C33.5497 40.5833 33.0474 40.0804 33.0474 39.4601C33.0474 38.8398 33.5497 38.3369 34.1694 38.3369C34.789 38.3369 35.2913 38.8398 35.2913 39.4601Z" fill="#FEE79C"/>
<path d="M31.9252 43.9538C31.9252 44.5741 31.4229 45.077 30.8032 45.077C30.1835 45.077 29.6812 44.5741 29.6812 43.9538C29.6812 43.3335 30.1835 42.8306 30.8032 42.8306C31.4229 42.8306 31.9252 43.3335 31.9252 43.9538Z" fill="#FEE79C"/>
<path d="M29.6807 34.4065C29.6807 35.337 28.9272 36.0913 27.9977 36.0913C27.0682 36.0913 26.3147 35.337 26.3147 34.4065C26.3147 33.476 27.0682 32.7217 27.9977 32.7217C28.9272 32.7217 29.6807 33.476 29.6807 34.4065Z" fill="#FEE79C"/>
<path d="M39.7785 44.5154C39.7785 45.4459 39.025 46.2003 38.0955 46.2003C37.1661 46.2003 36.4126 45.4459 36.4126 44.5154C36.4126 43.5849 37.1661 42.8306 38.0955 42.8306C39.025 42.8306 39.7785 43.5849 39.7785 44.5154Z" fill="#FEE79C"/>
<path d="M17.3383 32.1624C17.3383 33.093 16.5849 33.8473 15.6554 33.8473C14.7259 33.8473 13.9724 33.093 13.9724 32.1624C13.9724 31.2319 14.7259 30.4775 15.6554 30.4775C16.5849 30.4775 17.3383 31.2319 17.3383 32.1624Z" fill="#FEE79C"/>
</svg>
