<svg width="99" height="93" viewBox="0 0 99 93" fill="none" xmlns="http://www.w3.org/2000/svg">
<path d="M2.89992 63.3664C4.88702 58.3621 14.8225 34.6752 28.7321 22.9985C45.2912 7.65205 67.1493 15.3253 72.4482 16.9934C77.7471 18.6615 99.9363 30.6717 97.9492 50.3553C95.9621 70.0388 88.0137 74.0422 79.0718 80.0473C70.1299 86.0525 45.9536 87.7206 35.0246 88.3878C24.0956 89.055 20.4526 93.0585 13.829 92.0576C7.20531 91.0568 6.21175 89.7223 2.89992 85.7189C-0.411898 81.7154 0.912831 68.3707 2.89992 63.3664Z" fill="#F8AB4F"/>
<path d="M86.6857 28.0027C86.6857 26.9352 87.1273 26.2235 87.3481 26.001C88.452 25.3338 90.8586 23.9994 91.6534 23.9994C92.6469 23.9994 93.9717 26.6683 93.6405 27.3355C93.3093 28.0027 90.6599 29.3372 89.6663 29.3372C88.6728 29.3372 86.6857 29.3372 86.6857 28.0027Z" fill="#FFC37B"/>
<path d="M91.9917 50.355C92.7936 44.4316 92.9853 38.3447 88.3487 38.3447C86.0304 38.3447 84.6756 38.3447 83.381 41.6809C82.8694 42.9992 75.7638 55.0257 71.4584 58.6955C67.153 62.3654 64.1724 65.0343 63.8412 68.0369C63.51 71.0395 69.1401 75.3765 76.7573 70.7058C84.3745 66.0352 90.6368 60.3636 91.9917 50.355Z" fill="#F49342"/>
<path d="M58.2071 24.6662C49.9938 20.9297 37.7843 7.31804 32.7061 0.97929C35.6868 3.31462 50.9211 8.31889 66.8179 11.3215C82.7146 14.324 90.0006 27.6687 87.3511 28.6696C84.7017 29.6705 68.4738 29.3368 58.2071 24.6662Z" fill="#91A44C"/>
<path d="M58.2072 24.6662C49.9939 20.9297 37.7843 7.31804 32.7061 0.97929C35.6868 3.31462 47.248 16.993 63.1447 19.9955C79.0415 22.9981 90.0006 27.6687 87.3512 28.6696C84.7017 29.6705 68.4738 29.3368 58.2072 24.6662Z" fill="#8B9B4A"/>
</svg>
