<svg width="28" height="36" viewBox="0 0 28 36" fill="none" xmlns="http://www.w3.org/2000/svg">
<path d="M27.4373 21.9903C27.419 29.5227 21.343 35.6147 13.8662 35.5971C6.38939 35.5795 0.34309 29.4589 0.361392 21.9265C0.379694 14.3941 6.45567 8.30212 13.9325 8.31973C21.4093 8.33733 27.4556 14.4578 27.4373 21.9903Z" fill="#F49342"/>
<path d="M27.4365 21.8487C27.4182 29.381 21.3423 35.4729 13.8655 35.4553C8.29107 35.4422 4.96125 29.3281 4.97956 21.7958C4.99786 14.2634 12.1798 8.17411 13.9318 8.17823C21.4085 8.19584 27.4548 14.3163 27.4365 21.8487Z" fill="#F8AB4F"/>
<path d="M6.60739 7.18053C8.76875 9.11105 12.1775 8.95863 13.6116 8.6411C13.8794 7.67901 13.8747 5.24012 11.7137 3.18123C9.55265 1.12234 5.61546 0.278711 3.91699 0.114258C3.91322 1.66529 4.44603 5.25 6.60739 7.18053Z" fill="#54BB61"/>
<path d="M6.60737 7.18054C8.76872 9.11107 12.1774 8.95864 13.6116 8.64111C13.8794 7.67902 10.8435 7.31888 8.68251 5.25999C6.52148 3.20109 5.61545 0.278711 3.91699 0.114258C3.91322 1.6653 4.44602 5.25001 6.60737 7.18054Z" fill="#249D5D"/>
<path d="M2.26889 23.3743C2.26825 23.6401 2.0538 23.8551 1.78992 23.8545C1.52603 23.8539 1.31264 23.6379 1.31328 23.3721C1.31393 23.1062 1.52837 22.8913 1.79226 22.8919C2.05614 22.8925 2.26954 23.1085 2.26889 23.3743Z" fill="#FFC37B"/>
<path d="M2.26206 25.6215C2.26141 25.8873 2.04697 26.1023 1.78308 26.1017C1.5192 26.1011 1.3058 25.8851 1.30645 25.6193C1.30709 25.3534 1.52154 25.1384 1.78542 25.1391C2.04931 25.1397 2.2627 25.3557 2.26206 25.6215Z" fill="#FFC37B"/>
<path d="M4.49106 26.9105C4.49042 27.1763 4.27597 27.3913 4.01209 27.3907C3.7482 27.3901 3.53481 27.1741 3.53545 26.9082C3.5361 26.6424 3.75054 26.4274 4.01443 26.428C4.27831 26.4286 4.49171 26.6446 4.49106 26.9105Z" fill="#FFC37B"/>
<path d="M2.89457 27.7089C2.89414 27.8861 2.75118 28.0294 2.57527 28.029C2.39935 28.0286 2.25709 27.8846 2.25752 27.7074C2.25795 27.5301 2.40091 27.3868 2.57683 27.3872C2.75274 27.3876 2.895 27.5316 2.89457 27.7089Z" fill="#FFC37B"/>
<path d="M4.16847 28.6753C4.16804 28.8525 4.02509 28.9958 3.84918 28.9954C3.67327 28.995 3.53102 28.851 3.53145 28.6738C3.53188 28.4966 3.67483 28.3532 3.85074 28.3537C4.02664 28.3541 4.1689 28.4981 4.16847 28.6753Z" fill="#FFC37B"/>
<path d="M4.17697 24.8254C4.17611 25.1798 3.89016 25.4665 3.53829 25.4656C3.18642 25.4648 2.90188 25.1768 2.90274 24.8224C2.9036 24.4679 3.18954 24.1813 3.54141 24.1821C3.89328 24.1829 4.17783 24.4709 4.17697 24.8254Z" fill="#FFC37B"/>
</svg>
