<svg width="84" height="92" viewBox="0 0 84 92" fill="none" xmlns="http://www.w3.org/2000/svg">
<path d="M35.732 89.848C33.1662 89.7459 18.9038 86.5849 11.2859 71.7575C7.00939 63.4338 4.75039 58.1144 5.65187 46.1159C6.77871 31.1177 23.2419 30.7352 28.8231 32.5135C33.8628 34.1192 41.2699 37.026 45.6724 35.2587C50.3755 33.3708 57.8135 27.4422 64.9341 29.2816C72.0548 31.1211 86.1268 38.9431 80.0641 61.5258C74.0015 84.1084 61.9874 88.8177 60.4267 89.2743C59.1733 89.6411 53.6027 90.1707 49.1423 88.3914C47.2907 87.6528 45.05 87.7215 43.2311 88.545C40.5315 89.7673 37.5887 89.9219 35.732 89.848Z" fill="#EA3942"/>
<path d="M39.3956 12.2409C38.3732 17.1754 39.0635 28.8112 39.5365 34.0123C39.705 29.8732 42.0714 22.1935 45.9548 15.0923C49.8382 7.99117 45.2665 6.7733 44.2622 6.21521C43.258 5.65713 40.6736 6.07281 39.3956 12.2409Z" fill="#81766A"/>
<path d="M47.3572 18.7835C44.8096 20.7567 42.5646 27.0642 41.7605 29.9712C44.3402 29.7281 49.9185 29.051 51.5943 28.2878C53.6891 27.3338 59.5661 21.8624 59.3281 15.1105C54.6889 15.4445 50.5417 16.3169 47.3572 18.7835Z" fill="#83C45D"/>
<path d="M23.6675 19.3793C27.1753 24.0814 34.1806 26.192 37.2448 26.6595C37.3505 24.0713 36.8004 17.4129 33.7538 11.4848C29.9455 4.07461 21.2871 2.1748 18.743 1.55513C18.6796 3.10804 19.2827 13.5016 23.6675 19.3793Z" fill="#AFD056"/>
<path d="M10.3069 51.0829C11.0178 42.9532 13.4958 42.2531 17.1056 43.9652C18.9105 44.8213 19.4292 47.0783 19.8725 48.1505C20.3159 49.2226 21.4001 60.3666 23.5413 64.5423C25.6825 68.7181 27.1225 71.6994 26.3897 73.9374C25.6569 76.1755 19.8427 77.1525 15.4533 71.0485C11.064 64.9445 10.1621 52.738 10.3069 51.0829Z" fill="#B90A13"/>
</svg>
