<svg width="110" height="117" viewBox="0 0 110 117" fill="none" xmlns="http://www.w3.org/2000/svg">
<mask id="mask0_322_188" style="mask-type:alpha" maskUnits="userSpaceOnUse" x="13" y="15" width="84" height="89">
<path d="M93.4725 74.7757C84.5526 97.6685 60.2203 109.295 39.125 100.743C18.0296 92.1923 8.15946 66.702 17.0794 43.8092C25.9994 20.9165 50.3316 9.29031 71.427 17.8415C92.5223 26.3926 102.392 51.8829 93.4725 74.7757Z" fill="#C4C4C4"/>
</mask>
<g mask="url(#mask0_322_188)">
<path d="M-1.16337 85.691C-2.04323 87.1376 -4.98659 86.2937 -6.34829 85.691L-9.17643 88.3028L6.37834 97.3439L37.3308 4.12013C35.8119 3.98619 32.5543 3.35666 31.6745 1.91009C30.5746 0.101865 25.8611 2.51283 25.704 4.12013C25.5468 5.72744 27.9036 6.93291 26.9609 7.93748C26.0182 8.94204 24.2899 7.13382 23.9757 8.3393C23.6614 9.54478 26.0182 10.5493 25.2326 11.9557C24.447 13.3621 21.1475 10.7503 21.1475 12.9603C21.1475 15.1704 23.5043 16.1749 22.7187 18.385C21.9331 20.595 17.2195 18.9877 17.0624 20.9968C16.9053 23.006 20.0477 25.4169 18.9478 28.0288C17.848 30.6407 12.1917 29.4352 11.8775 32.248C11.5633 35.0608 14.5485 37.6727 13.7629 40.8873C12.9773 44.1019 6.8497 43.2982 6.37834 45.9101C5.90698 48.522 9.52072 52.7412 8.578 55.7549C7.63529 58.7686 2.29325 57.9649 2.13613 59.974C1.97901 61.9832 4.80715 66.8051 4.17867 68.4124C3.5502 70.0197 0.0935831 68.0106 -0.377774 69.8188C-0.849131 71.627 2.13613 74.4398 2.13613 75.8462C2.13613 77.2526 -1.47761 76.248 -1.63472 77.4535C-1.79184 78.659 1.0363 80.0654 0.56494 81.2709C0.0935841 82.4764 -2.42032 80.2663 -2.2632 81.8736C-2.10608 83.4809 -0.0635357 83.8828 -1.16337 85.691Z" fill="#3D8A75"/>
<path d="M7.11766 89.7114C6.2378 91.1579 3.29445 90.3141 1.93275 89.7114L-0.895374 92.3232L14.6593 101.364L45.6116 8.14043C44.0928 8.00649 40.8352 7.37696 39.9554 5.93038C38.8555 4.12216 34.142 6.53312 33.9849 8.14043C33.8278 9.74774 36.1845 10.9532 35.2418 11.9578C34.2991 12.9623 32.5708 11.1541 32.2566 12.3596C31.9423 13.5651 34.2991 14.5697 33.5135 15.976C32.7279 17.3824 29.4284 14.7706 29.4284 16.9806C29.4284 19.1907 31.7852 20.1952 30.9996 22.4053C30.214 24.6153 25.5005 23.008 25.3434 25.0172C25.1863 27.0263 28.3286 29.4373 27.2288 32.0491C26.129 34.661 20.4727 33.4555 20.1585 36.2683C19.8442 39.0811 22.8295 41.693 22.0439 44.9076C21.2583 48.1222 15.1307 47.3186 14.6593 49.9304C14.188 52.5423 17.8017 56.7615 16.859 59.7752C15.9163 62.7889 10.5743 61.9853 10.4171 63.9944C10.26 66.0035 13.0882 70.8255 12.4597 72.4328C11.8312 74.0401 8.3746 72.0309 7.90325 73.8392C7.43189 75.6474 10.4171 78.4602 10.4171 79.8666C10.4171 81.273 6.80342 80.2684 6.6463 81.4739C6.48918 82.6794 9.31731 84.0858 8.84596 85.2913C8.3746 86.4967 5.86071 84.2867 6.01783 85.894C6.17495 87.5013 8.21749 87.9031 7.11766 89.7114Z" fill="#5EA571"/>
<path d="M12.3982 90.1646C11.414 91.6051 8.12139 90.7648 6.59814 90.1646L3.43446 92.7655L20.8347 101.769L55.4594 8.93506C53.7604 8.80168 50.1163 8.17478 49.132 6.73426C47.9017 4.9336 42.6289 7.33448 42.4532 8.93506C42.2774 10.5356 44.9138 11.7361 43.8592 12.7364C42.8047 13.7368 40.8713 11.9361 40.5198 13.1366C40.1683 14.337 42.8047 15.3374 41.9259 16.7379C41.0471 18.1384 37.3561 15.5374 37.3561 17.7382C37.3561 19.939 39.9925 20.9394 39.1137 23.1402C38.2349 25.341 32.9621 23.7404 32.7864 25.7412C32.6106 27.7419 36.1258 30.1428 34.8955 32.7437C33.6652 35.3446 27.3378 34.1442 26.9863 36.9452C26.6348 39.7462 29.9742 42.3472 29.0954 45.5484C28.2166 48.7495 21.362 47.9492 20.8347 50.5502C20.3074 53.1511 24.3499 57.3526 23.2953 60.3537C22.2408 63.3548 16.2649 62.5545 16.0892 64.5553C15.9134 66.556 19.0771 71.3577 18.374 72.9583C17.671 74.5589 13.8043 72.5582 13.277 74.3588C12.7497 76.1595 16.0892 78.9605 16.0892 80.361C16.0892 81.7615 12.0467 80.7612 11.8709 81.9616C11.6952 83.162 14.8589 84.5626 14.3316 85.763C13.8043 86.9634 10.9921 84.7626 11.1679 86.3632C11.3437 87.9638 13.6285 88.364 12.3982 90.1646Z" fill="#6AAC72"/>
<path d="M20.0786 92.9635C19.1167 94.3556 15.899 93.5435 14.4104 92.9635L11.3186 95.477L28.3234 104.178L62.1611 14.4643C60.5007 14.3354 56.9395 13.7296 55.9776 12.3375C54.7752 10.5974 49.6223 12.9175 49.4505 14.4643C49.2787 16.0111 51.8552 17.1712 50.8246 18.1379C49.794 19.1046 47.9046 17.3645 47.5611 18.5246C47.2176 19.6847 49.794 20.6514 48.9352 22.0049C48.0764 23.3583 44.4693 20.8448 44.4693 22.9716C44.4693 25.0984 47.0458 26.0652 46.187 28.192C45.3281 30.3188 40.1752 28.772 40.0034 30.7055C39.8316 32.639 43.267 34.9592 42.0646 37.4727C40.8622 39.9862 34.6787 38.8261 34.3352 41.533C33.9916 44.2398 37.2552 46.7534 36.3963 49.8469C35.5375 52.9405 28.8387 52.1671 28.3234 54.6806C27.8081 57.1941 31.7587 61.2544 30.7281 64.1547C29.6975 67.0549 23.8575 66.2815 23.6857 68.215C23.5139 70.1484 26.6057 74.7888 25.9187 76.3356C25.2316 77.8823 21.4528 75.9489 20.9375 77.689C20.4222 79.4291 23.6857 82.136 23.6857 83.4894C23.6857 84.8429 19.7351 83.8761 19.5633 85.0362C19.3916 86.1963 22.4833 87.5498 21.968 88.7098C21.4528 89.8699 18.7045 87.7431 18.8763 89.2899C19.048 90.8367 21.281 91.2234 20.0786 92.9635Z" fill="#94C77F"/>
<path d="M29.2667 95.7456C28.3346 97.1921 25.2167 96.3483 23.7742 95.7456L20.7783 98.3574L37.2558 107.398L70.0444 14.1746C68.4355 14.0407 64.9846 13.4112 64.0526 11.9646C62.8875 10.1564 57.8943 12.5673 57.7279 14.1746C57.5614 15.7819 60.058 16.9874 59.0594 17.992C58.0607 18.9965 56.2299 17.1883 55.897 18.3938C55.5641 19.5993 58.0607 20.6039 57.2285 22.0103C56.3963 23.4166 52.9011 20.8048 52.9011 23.0148C52.9011 25.2249 55.3977 26.2294 54.5655 28.4395C53.7333 30.6495 48.7401 29.0422 48.5737 31.0514C48.4072 33.0605 51.736 35.4715 50.571 38.0833C49.4059 40.6952 43.4141 39.4897 43.0812 42.3025C42.7483 45.1153 45.9107 47.7272 45.0785 50.9418C44.2463 54.1564 37.7551 53.3528 37.2558 55.9646C36.7565 58.5765 40.5846 62.7957 39.586 65.8094C38.5873 68.8231 32.9284 68.0195 32.7619 70.0286C32.5955 72.0377 35.5914 76.8597 34.9256 78.467C34.2599 80.0743 30.5982 78.0651 30.0989 79.8734C29.5996 81.6816 32.7619 84.4944 32.7619 85.9008C32.7619 87.3072 28.9338 86.3026 28.7674 87.5081C28.6009 88.7136 31.5969 90.12 31.0975 91.3255C30.5982 92.531 27.9352 90.3209 28.1016 91.9282C28.2681 93.5355 30.4318 93.9373 29.2667 95.7456Z" fill="#6AAC72"/>
<path d="M39.8115 97.7527C38.9615 99.1992 36.1179 98.3554 34.8024 97.7527L32.0701 100.364L47.0976 109.406L77.0007 16.1818C75.5334 16.0479 72.3863 15.4183 71.5362 13.9718C70.4737 12.1635 65.9199 14.5745 65.7681 16.1818C65.6163 17.7891 67.8932 18.9946 66.9824 19.9992C66.0717 21.0037 64.4019 19.1955 64.0984 20.401C63.7948 21.6065 66.0717 22.611 65.3127 24.0174C64.5537 25.4238 61.3661 22.8119 61.3661 25.022C61.3661 27.232 63.643 28.2366 62.884 30.4466C62.1251 32.6567 57.5713 31.0494 57.4195 33.0585C57.2677 35.0677 60.3035 37.4786 59.241 40.0905C58.1784 42.7024 52.7139 41.4969 52.4103 44.3097C52.1067 47.1225 54.9908 49.7343 54.2318 52.949C53.4729 56.1636 47.553 55.3599 47.0976 57.9718C46.6422 60.5837 50.1334 64.8028 49.2227 67.8165C48.3119 70.8302 43.151 70.0266 42.9992 72.0357C42.8474 74.0449 45.5796 78.8668 44.9725 80.4741C44.3653 82.0814 41.0259 80.0723 40.5705 81.8805C40.1151 83.6887 42.9992 86.5015 42.9992 87.9079C42.9992 89.3143 39.5079 88.3097 39.3561 89.5152C39.2043 90.7207 41.9366 92.1271 41.4812 93.3326C41.0259 94.5381 38.5972 92.328 38.749 93.9353C38.9008 95.5426 40.8741 95.9444 39.8115 97.7527Z" fill="#3D8A75"/>
<path d="M46.5321 100.969C45.6523 102.416 42.7089 101.572 41.3472 100.969L38.5191 103.581L54.0739 112.622L85.0263 19.3984C83.5075 19.2645 80.2499 18.635 79.3701 17.1884C78.2702 15.3802 73.5566 17.7911 73.3995 19.3984C73.2424 21.0057 75.5992 22.2112 74.6565 23.2158C73.7138 24.2204 71.9855 22.4121 71.6712 23.6176C71.357 24.8231 73.7138 25.8277 72.9282 27.2341C72.1426 28.6405 68.8431 26.0286 68.8431 28.2386C68.8431 30.4487 71.1999 31.4532 70.4143 33.6633C69.6287 35.8734 64.9151 34.266 64.758 36.2752C64.6009 38.2843 67.7432 40.6953 66.6434 43.3072C65.5436 45.919 59.8873 44.7136 59.573 47.5264C59.2588 50.3391 62.2441 52.951 61.4585 56.1656C60.6729 59.3803 54.5452 58.5766 54.0739 61.1885C53.6025 63.8004 57.2162 68.0196 56.2735 71.0333C55.3308 74.047 49.9888 73.2433 49.8316 75.2525C49.6745 77.2616 52.5027 82.0835 51.8742 83.6908C51.2457 85.2981 47.7891 83.289 47.3177 85.0972C46.8464 86.9055 49.8316 89.7182 49.8316 91.1246C49.8316 92.531 46.2179 91.5265 46.0608 92.732C45.9037 93.9374 48.7318 95.3439 48.2605 96.5493C47.7891 97.7548 45.2752 95.5448 45.4323 97.1521C45.5894 98.7594 47.632 99.1612 46.5321 100.969Z" fill="#94C77F"/>
<path d="M54.1219 101.372C53.3166 102.819 50.6226 101.975 49.3763 101.372L46.7879 103.984L61.0244 113.025L89.3537 19.8013C87.9636 19.6674 84.9821 19.0379 84.1768 17.5913C83.1701 15.7831 78.856 18.194 78.7122 19.8013C78.5684 21.4086 80.7255 22.6141 79.8627 23.6187C78.9998 24.6232 77.418 22.815 77.1304 24.0205C76.8428 25.226 78.9998 26.2305 78.2808 27.6369C77.5618 29.0433 74.5419 26.4314 74.5419 28.6415C74.5419 30.8515 76.699 31.8561 75.98 34.0661C75.261 36.2762 70.9469 34.6689 70.8031 36.678C70.6593 38.6872 73.5353 41.0981 72.5287 43.71C71.5221 46.3219 66.3451 45.1164 66.0575 47.9292C65.7699 50.7419 68.5022 53.3538 67.7832 56.5684C67.0642 59.783 61.4558 58.9794 61.0244 61.5913C60.593 64.2031 63.9005 68.4223 63.0377 71.436C62.1749 74.4497 57.2855 73.6461 57.1417 75.6552C56.9979 77.6643 59.5864 82.4862 59.0112 84.0936C58.436 85.7009 55.2723 83.6917 54.8409 85.4999C54.4095 87.3082 57.1417 90.1209 57.1417 91.5273C57.1417 92.9337 53.8343 91.9292 53.6905 93.1346C53.5466 94.3401 56.1351 95.7465 55.7037 96.952C55.2723 98.1575 52.9714 95.9474 53.1152 97.5547C53.259 99.1621 55.1285 99.5639 54.1219 101.372Z" fill="#6AAC72"/>
<path d="M62.5901 102.98C61.8072 104.427 59.1881 103.583 57.9764 102.98L55.4598 105.592L69.3009 114.633L96.8433 21.4094C95.4918 21.2755 92.5931 20.646 91.8102 19.1994C90.8315 17.3912 86.6373 19.8021 86.4974 21.4094C86.3576 23.0168 88.4548 24.2222 87.6159 25.2268C86.7771 26.2314 85.2392 24.4231 84.9595 25.6286C84.6799 26.8341 86.7771 27.8387 86.078 29.2451C85.379 30.6515 82.443 28.0396 82.443 30.2496C82.443 32.4597 84.5401 33.4642 83.8411 35.6743C83.142 37.8843 78.9478 36.277 78.8079 38.2862C78.6681 40.2953 81.4643 42.7063 80.4857 45.3181C79.507 47.93 74.4739 46.7245 74.1942 49.5373C73.9146 52.3501 76.571 54.962 75.872 58.1766C75.1729 61.3912 69.7204 60.5876 69.3009 63.1995C68.8815 65.8113 72.0971 70.0305 71.2583 73.0442C70.4194 76.0579 65.6659 75.2543 65.5261 77.2634C65.3863 79.2725 67.9028 84.0945 67.3436 85.7018C66.7844 87.3091 63.7086 85.3 63.2891 87.1082C62.8697 88.9164 65.5261 91.7292 65.5261 93.1356C65.5261 94.542 62.3105 93.5374 62.1707 94.7429C62.0308 95.9484 64.5474 97.3548 64.128 98.5603C63.7086 99.7658 61.4716 97.5557 61.6114 99.163C61.7512 100.77 63.5687 101.172 62.5901 102.98Z" fill="#5EA571"/>
<path d="M70.224 107.259C69.2252 108.893 64.9806 108.749 62.9832 108.473L59.4489 111.712L82.609 116.992L111.011 17.756C108.869 17.9794 104.219 18.1209 102.76 16.8994C100.937 15.3726 94.7378 18.8552 94.7739 20.478C94.8101 22.1008 98.293 22.7386 97.1363 23.9506C95.9795 25.1625 93.2784 23.7829 93.0312 25.046C92.7841 26.3091 96.2351 26.7486 95.3616 28.3203C94.4882 29.892 89.465 28.0871 89.8165 30.2679C90.1679 32.4487 93.6189 32.8882 92.8732 35.2529C92.1276 37.6176 85.2894 37.1351 85.3895 39.1545C85.4895 41.1738 90.2613 42.8171 89.1407 45.6519C88.02 48.4867 79.9293 48.6214 79.9377 51.4706C79.9461 54.3197 84.5304 56.1981 83.9445 59.5541C83.3585 62.91 74.6734 63.5516 74.4305 66.2393C74.1875 68.9269 79.9051 72.2442 79.0678 75.4387C78.2305 78.6332 70.6424 79.0909 70.7425 81.1102C70.8426 83.1295 75.5588 87.2255 74.9367 88.9587C74.3146 90.6918 69.168 89.5185 68.7972 91.4132C68.4265 93.3078 73.0427 95.3845 73.2663 96.7723C73.49 98.16 68.2836 98.0148 68.2559 99.2411C68.2281 100.467 72.4013 101.193 71.9347 102.493C71.4682 103.793 67.606 102.201 68.081 103.75C68.556 105.299 71.4724 105.217 70.224 107.259Z" fill="#3D8A75"/>
</g>
<path d="M17.0823 43.8041C8.1623 66.6969 18.0325 92.1872 39.1278 100.738C47.3396 104.067 56.0418 104.338 64.1344 102.078C53.69 103.417 31.2247 102.168 24.1304 68.1992C18.455 41.0242 39.6328 21.7514 50.9311 15.5119C36.4229 17.8147 23.1669 28.1882 17.0823 43.8041Z" fill="#3D8A75" fill-opacity="0.75"/>
<path d="M65.0756 4.76463C64.3649 3.31828 61.1671 4.04146 60.1011 2.95669C58.2569 1.07982 62.5558 0.399641 64.9268 1.52635C65.8777 1.97825 66.7349 2.4758 67.2074 2.95669C68.6287 4.40305 67.5627 4.76463 68.2734 8.01894C68.984 11.2732 72.1818 9.1037 73.603 9.82688C75.0243 10.5501 74.3137 12.358 72.8924 13.0812C71.4712 13.8044 70.7606 19.2282 72.1818 20.6746C73.603 22.1209 72.5371 23.2057 72.1818 24.2904C71.8265 25.3752 70.0499 25.7368 68.2734 25.0136C66.4968 24.2904 65.7862 23.5673 66.4968 21.7593C67.2074 19.9514 68.2734 21.0361 68.2734 19.2282C68.2734 17.4203 70.4052 13.8044 70.0499 12.358C69.6946 10.9116 66.8521 11.2732 65.7862 9.82688C64.7203 8.38053 65.7862 6.21099 65.0756 4.76463Z" fill="#277D65"/>
</svg>
