<svg width="49" height="51" viewBox="0 0 49 51" fill="none" xmlns="http://www.w3.org/2000/svg">
<path d="M24.5 47L47.2648 50.8856L39.2474 29.2279L24.5 47ZM39.1507 41.5765L37.8484 40.0586L39.1507 41.5765ZM46.7385 27.9206L44.7617 27.6166L46.7385 27.9206ZM43.6053 12.6157L45.3036 11.5593L43.6053 12.6157ZM31.2617 3.04005L31.8627 1.1325L31.2617 3.04005ZM15.6584 3.81002L14.8724 1.97091L14.8724 1.97091L15.6584 3.81002ZM4.31746 14.5544L2.52346 13.6703L2.52346 13.6703L4.31746 14.5544ZM2.70634 30.0934L4.64355 29.5962L2.70634 30.0934ZM10.4552 44.5747C11.3602 45.2079 12.6072 44.9875 13.2404 44.0825C13.8736 43.1774 13.6533 41.9304 12.7482 41.2972L10.4552 44.5747ZM40.453 43.0944C44.8946 39.2837 47.8255 34.009 48.7152 28.2247L44.7617 27.6166C44.0173 32.4565 41.5649 36.8701 37.8484 40.0586L40.453 43.0944ZM48.7152 28.2247C49.6049 22.4404 48.3947 16.5287 45.3036 11.5593L41.9071 13.6721C44.4935 17.8301 45.5062 22.7766 44.7617 27.6166L48.7152 28.2247ZM45.3036 11.5593C42.2124 6.58995 37.4445 2.89124 31.8627 1.1325L30.6607 4.9476C35.3312 6.4192 39.3206 9.51404 41.9071 13.6721L45.3036 11.5593ZM31.8627 1.1325C26.2809 -0.62624 20.254 -0.328832 14.8724 1.97091L16.4443 5.64913C20.9472 3.72485 25.9902 3.476 30.6607 4.9476L31.8627 1.1325ZM14.8724 1.97091C9.4909 4.27065 5.11034 8.42079 2.52346 13.6703L6.11146 15.4384C8.276 11.046 11.9414 7.5734 16.4443 5.64913L14.8724 1.97091ZM2.52346 13.6703C-0.0634277 18.9199 -0.685746 24.922 0.769126 30.5906L4.64355 29.5962C3.42622 24.8531 3.94693 19.8309 6.11146 15.4384L2.52346 13.6703ZM0.769126 30.5906C2.22399 36.2592 5.65993 41.2198 10.4552 44.5747L12.7482 41.2972C8.73586 38.49 5.8609 34.3393 4.64355 29.5962L0.769126 30.5906Z" fill="black"/>
</svg>
