<svg width="36" height="27" viewBox="0 0 36 27" fill="none" xmlns="http://www.w3.org/2000/svg">
<path d="M0.641771 9.7782C0.596735 9.73308 0.540439 9.65413 0.472884 9.54135C0.405329 9.42857 0.337774 9.30451 0.27022 9.16917C0.202665 9.01128 0.13511 8.87594 0.0675549 8.76316C0.0225183 8.62782 0 8.52632 0 8.45865C0 8.25564 0.0900732 8.09774 0.27022 7.98496C0.450366 7.87218 0.653031 7.80451 0.878214 7.78195C1.1034 7.7594 1.31732 7.74812 1.51998 7.74812C1.74517 7.74812 1.88028 7.74812 1.92531 7.74812C1.99287 7.74812 2.08294 7.7594 2.19553 7.78195C2.33064 7.78195 2.46575 7.79323 2.60086 7.81579C2.75849 7.81579 2.8936 7.82707 3.00619 7.84962C3.11878 7.84962 3.1976 7.84962 3.24263 7.84962C3.98574 8.1203 4.83017 8.43609 5.77594 8.79699C6.74423 9.15789 7.73503 9.57519 8.74836 10.0489C9.76168 10.5226 10.7525 11.0639 11.7208 11.6729C12.6891 12.2594 13.556 12.9361 14.3216 13.703C15.0873 14.4474 15.7065 15.2707 16.1794 16.1729C16.6523 17.0752 16.8887 18.0789 16.8887 19.1842C16.8887 20.1316 16.7086 20.9887 16.3483 21.7556C15.988 22.5 15.5038 23.1541 14.8959 23.718C14.3104 24.2594 13.6236 24.7331 12.8354 25.1391C12.0473 25.5226 11.2366 25.8383 10.4035 26.0865C9.59279 26.312 8.77088 26.4812 7.9377 26.594C7.10452 26.7068 6.32764 26.7632 5.60706 26.7632C5.44943 26.7632 5.17921 26.7519 4.7964 26.7293C4.41359 26.7293 4.01952 26.718 3.61419 26.6955C3.20886 26.6729 2.83731 26.6617 2.49953 26.6617C2.18427 26.6391 2.01539 26.6278 1.99287 26.6278L1.92531 25.3759L0.641771 9.7782ZM2.56709 9.60902C2.56709 9.65413 2.56709 9.74436 2.56709 9.8797C2.56709 10.015 2.56709 10.1729 2.56709 10.3534C2.5896 10.5113 2.60086 10.6579 2.60086 10.7932C2.60086 10.9286 2.60086 11.0301 2.60086 11.0977C2.62338 11.4361 2.6459 11.9774 2.66842 12.7218C2.71345 13.4662 2.74723 14.312 2.76975 15.2594C2.81479 16.2068 2.85982 17.1992 2.90486 18.2368C2.97241 19.2519 3.02871 20.2331 3.07375 21.1805C3.11878 22.1053 3.15256 22.9511 3.17508 23.718C3.22012 24.4624 3.24263 25.015 3.24263 25.3759C3.37774 25.3759 3.59167 25.3872 3.88441 25.4098C4.19966 25.4098 4.52618 25.4211 4.86395 25.4436C5.20173 25.4436 5.51698 25.4549 5.80972 25.4774C6.12498 25.4774 6.35016 25.4774 6.48527 25.4774C7.52111 25.4774 8.54569 25.3534 9.55902 25.1053C10.5723 24.8346 11.4731 24.4398 12.2612 23.9211C13.0719 23.3797 13.7249 22.6917 14.2203 21.8571C14.7382 21 14.9972 19.9737 14.9972 18.7782C14.9972 17.8985 14.7945 17.0639 14.3892 16.2744C13.9839 15.4624 13.4434 14.718 12.7679 14.0414C12.1148 13.3647 11.3605 12.7556 10.5048 12.2143C9.64909 11.6729 8.75962 11.2105 7.83637 10.8271C6.93564 10.4211 6.02364 10.1165 5.10039 9.91353C4.19966 9.71053 3.35523 9.60902 2.56709 9.60902Z" fill="#3481CB"/>
<path d="M18.0034 2.87594C18.0034 2.60526 18.0935 2.39098 18.2736 2.23308C18.4763 2.05263 18.7127 1.96241 18.9829 1.96241C19.0054 1.96241 19.0617 1.96241 19.1518 1.96241C19.2419 1.96241 19.2982 1.96241 19.3207 1.96241C19.4333 3.85714 19.5346 5.66165 19.6247 7.37594C19.7148 9.06767 19.7823 10.7368 19.8274 12.3835C19.8949 14.0301 19.94 15.6767 19.9625 17.3233C19.985 18.9474 19.9962 20.6504 19.9962 22.4323C19.9962 22.6805 20.0075 23.0188 20.03 23.4474C20.0751 23.8759 20.1088 24.2932 20.1314 24.6992C20.1764 25.1053 20.2102 25.4774 20.2327 25.8158C20.2777 26.1316 20.3002 26.3008 20.3002 26.3233L18.8478 26.594C18.8028 25.6692 18.7577 24.609 18.7127 23.4135C18.6677 22.1955 18.6226 20.9098 18.5776 19.5564C18.5551 18.1805 18.5213 16.7707 18.4763 15.3271C18.4537 13.8609 18.4087 12.4173 18.3412 10.9962C18.2961 9.57519 18.2398 8.21053 18.1723 6.90226C18.1272 5.57143 18.0709 4.36466 18.0034 3.28195V2.87594Z" fill="#3481CB"/>
<path d="M30.7712 15.6316C30.4335 15.1353 29.9719 14.5263 29.3864 13.8045C28.8234 13.0827 28.2154 12.3045 27.5624 11.4699C26.9094 10.6128 26.2338 9.73308 25.5357 8.83083C24.8377 7.92857 24.1846 7.06015 23.5767 6.22556C22.9912 5.36842 22.4733 4.57895 22.0229 3.85714C21.5725 3.11278 21.246 2.4812 21.0433 1.96241L21.7189 1.35338C22.5521 2.25564 23.2727 3.09023 23.8807 3.85714C24.5112 4.6015 25.0741 5.31203 25.5695 5.98872C26.0649 6.64286 26.5153 7.27444 26.9206 7.88346C27.326 8.49248 27.7425 9.11278 28.1704 9.74436C28.6208 10.3534 29.1049 10.985 29.6228 11.6391C30.1407 12.2707 30.7487 12.9474 31.4468 13.6692C31.5819 13.0376 31.7058 12.3383 31.8184 11.5714C31.9535 10.782 32.0886 9.96992 32.2237 9.13534C32.3588 8.30075 32.5052 7.45489 32.6628 6.59774C32.8204 5.71804 33.0006 4.88346 33.2032 4.09398C33.4059 3.28195 33.6198 2.52632 33.845 1.82707C34.0927 1.12782 34.3742 0.530075 34.6894 0.0338346C34.712 0.0112782 34.757 0 34.8245 0C34.9146 0 34.9822 0 35.0272 0C35.0948 0 35.1848 0.0112782 35.2974 0.0338346C35.4325 0.056391 35.5564 0.101504 35.669 0.169173C35.7816 0.214286 35.8716 0.281955 35.9392 0.37218C36.0068 0.462406 36.018 0.56391 35.973 0.676692C35.7253 1.19549 35.4663 1.89474 35.1961 2.77444C34.9484 3.65414 34.7007 4.64662 34.453 5.75188C34.2278 6.83459 34.0139 8.0188 33.8112 9.30451C33.6086 10.5677 33.4171 11.8534 33.237 13.1617C33.0794 14.4699 32.933 15.7782 32.7979 17.0865C32.6628 18.3722 32.5615 19.5789 32.4939 20.7068C32.4263 21.8346 32.3926 22.8609 32.3926 23.7857C32.4151 24.7105 32.4714 25.4549 32.5615 26.0188C32.5164 26.2669 32.4714 26.4586 32.4263 26.594C32.4038 26.7068 32.3363 26.797 32.2237 26.8647C32.1111 26.9323 31.9422 26.9662 31.717 26.9662C31.4918 26.9887 31.1766 27 30.7712 27V15.6316Z" fill="#3481CB"/>
</svg>
