<svg width="351" height="360" viewBox="0 0 351 360" fill="none" xmlns="http://www.w3.org/2000/svg">
<g filter="url(#filter0_d_538_183)">
<path d="M53.1216 159.531L57.4137 68.919L59.3213 36.0126L247.222 37.9202L249.129 71.7804L251.037 160.962L253.898 165.731V262.542V293.541H43.5835V261.588L49.7833 164.777L53.1216 159.531Z" fill="#CE9575"/>
</g>
<g filter="url(#filter1_d_538_183)">
<path d="M55.0293 254.435L60.7521 173.361L238.637 174.792L241.976 254.435H55.0293Z" fill="#9D7154"/>
</g>
<g filter="url(#filter2_d_538_183)">
<path d="M87.4577 178.13H99.8572L95.565 250.62H83.1655L87.4577 178.13Z" fill="#74492C"/>
</g>
<g filter="url(#filter3_d_538_183)">
<path d="M153.748 178.13H166.147L168.055 250.62H155.655L153.748 178.13Z" fill="#74492C"/>
</g>
<g filter="url(#filter4_d_538_183)">
<path d="M180.455 178.13H192.855L199.531 250.62H187.132L180.455 178.13Z" fill="#74492C"/>
</g>
<g filter="url(#filter5_d_538_183)">
<path d="M207.161 178.13H219.56L228.621 249.189H216.222L207.161 178.13Z" fill="#74492C"/>
</g>
<g filter="url(#filter6_d_538_183)">
<path d="M122.272 178.13H134.672L132.764 250.62H120.365L122.272 178.13Z" fill="#74492C"/>
</g>
<g filter="url(#filter7_d_538_183)">
<rect x="81.5405" y="220.098" width="19.0762" height="8.58428" transform="rotate(1.88168 81.5405 220.098)" fill="#F8F8F8"/>
</g>
<g filter="url(#filter8_d_538_183)">
<rect x="118.556" y="204.276" width="19.0762" height="8.58428" transform="rotate(-0.491116 118.556 204.276)" fill="#F8F8F8"/>
</g>
<g filter="url(#filter9_d_538_183)">
<rect x="152.794" y="240.291" width="19.0762" height="8.58428" transform="rotate(-0.491116 152.794 240.291)" fill="#F8F8F8"/>
</g>
<g filter="url(#filter10_d_538_183)">
<rect x="180.455" y="208.183" width="19.0762" height="8.58428" transform="rotate(-4.32588 180.455 208.183)" fill="#F8F8F8"/>
</g>
<g filter="url(#filter11_d_538_183)">
<rect x="210.977" y="229.729" width="19.0762" height="8.58428" transform="rotate(-3.14511 210.977 229.729)" fill="#F8F8F8"/>
</g>
<g filter="url(#filter12_d_538_183)">
<path d="M185.224 243.466C184.461 241.558 181.091 228.682 179.501 222.482C178.547 220.575 177.784 215.901 182.362 212.467C186.941 209.034 191.265 211.037 192.854 212.467C194.126 213.421 197.909 216.759 202.869 222.482C209.069 229.636 210.5 238.697 210.977 240.128C211.453 241.558 221.468 254.912 226.714 253.481C231.96 252.05 247.221 232.497 251.513 219.144C252.972 214.605 254.426 210.364 255.712 206.744L254.375 202.452V183.376L258.137 186.237L257.713 183.376L254.375 180.515V165.731L253.421 164.3C253.262 163.982 253.326 163.346 254.852 163.346C256.759 163.346 258.19 164.777 263.913 169.069C269.636 173.361 268.682 180.038 275.359 187.668C282.035 195.299 280.128 199.591 280.128 200.545C280.128 201.498 278.22 204.36 278.22 210.56C278.22 216.759 283.943 235.836 284.897 237.743C285.851 239.651 289.189 245.374 290.143 249.189C291.097 253.004 288.712 260.158 288.712 261.111C288.712 262.065 288.712 263.496 289.666 265.881C290.62 268.265 290.62 284.957 291.097 294.018C291.573 303.079 293.004 319.771 295.389 327.878C297.296 334.364 309.855 351.882 315.896 359.831H250.56C250.083 358.877 236.729 338.847 228.622 331.693C220.515 324.54 212.884 310.233 211.93 308.325C210.977 306.417 206.684 295.925 206.208 293.541C205.731 291.156 203.346 284.003 201.915 281.618C200.485 279.234 197.146 270.173 197.146 268.265C197.146 266.357 191.9 253.958 190.947 252.527C189.993 251.096 186.178 245.851 185.224 243.466Z" fill="#F3D5CE"/>
<path d="M194.286 221.052C193.904 221.815 188.245 225.344 184.748 227.728C183.794 226.774 181.791 224.008 181.409 222.482C180.932 220.575 180.932 217.236 183.317 214.375C185.701 211.513 189.517 212.467 190.947 213.421C192.378 214.375 194.763 220.098 194.286 221.052Z" fill="#F0AFAF"/>
</g>
<g filter="url(#filter13_d_538_183)">
<path d="M83.6428 344.57C79.8276 348.385 76.0123 356.015 74.5816 359.354H4C12.5843 355.062 20.2147 328.832 21.1686 325.494C22.1224 322.155 19.261 284.957 16.8764 280.188C14.4918 275.419 14.015 270.65 14.9688 268.265C15.7318 266.357 18.1482 263.337 19.261 262.065C18.7841 260.158 17.9257 255.77 18.3072 253.481C18.7841 250.62 22.1223 241.081 24.0299 238.697C25.9375 236.312 23.553 230.113 24.0299 228.682C24.5068 227.251 25.4606 221.528 26.4144 217.236C27.1774 213.803 29.2758 211.354 30.2296 210.56C29.9117 209.606 29.085 207.317 28.3219 205.791C27.3681 203.883 27.845 198.16 31.1833 193.391C34.5217 188.622 31.6602 189.576 35.4755 180.515C38.5277 173.266 45.9674 171.135 49.3057 170.977L48.3519 186.237C48.8288 188.781 49.6872 194.917 49.3057 199.114C52.644 202.452 55.9824 215.806 57.4131 218.667C58.8438 221.528 60.7514 219.621 70.2895 233.451C79.8276 247.281 92.704 248.712 97.473 247.281C102.242 245.85 107.965 233.928 109.873 228.682C111.78 223.436 120.364 211.513 126.564 205.791C132.764 200.068 144.21 200.545 144.687 207.698C145.163 214.852 141.825 223.436 139.918 228.682C138.01 233.928 128.472 245.374 125.61 251.096C122.749 256.819 119.411 274.465 116.072 285.91C112.734 297.356 102.719 320.248 101.288 323.586C99.8576 326.924 88.4119 339.801 83.6428 344.57Z" fill="#F3D5CE"/>
<path d="M138.487 220.575C137.342 220.575 130.379 215.488 127.041 212.944C131.333 202.929 137.056 203.883 140.394 205.791C143.065 207.317 142.779 211.513 142.302 213.421C141.507 215.806 139.631 220.575 138.487 220.575Z" fill="#F0AFAF"/>
</g>
<g filter="url(#filter14_d_538_183)">
<path d="M63.6128 157.146L68.3818 43.643L236.252 45.5507L239.114 159.531L63.6128 157.146Z" fill="white"/>
</g>
<path d="M116.446 94.452C116.321 94.3278 116.166 94.1104 115.98 93.8C115.794 93.4895 115.607 93.1479 115.421 92.7754C115.235 92.3407 115.048 91.9681 114.862 91.6576C114.738 91.285 114.676 91.0056 114.676 90.8193C114.676 90.2604 114.924 89.8258 115.421 89.5153C115.918 89.2048 116.477 89.0185 117.098 88.9564C117.719 88.8943 118.308 88.8633 118.867 88.8633C119.488 88.8633 119.861 88.8633 119.985 88.8633C120.171 88.8633 120.42 88.8943 120.73 88.9564C121.103 88.9564 121.475 88.9874 121.848 89.0495C122.283 89.0495 122.655 89.0806 122.966 89.1427C123.276 89.1427 123.494 89.1427 123.618 89.1427C125.667 89.8879 127.996 90.7572 130.604 91.7508C133.274 92.7443 136.006 93.8931 138.8 95.1971C141.595 96.5012 144.327 97.9915 146.997 99.6681C149.667 101.283 152.058 103.146 154.169 105.257C156.281 107.306 157.988 109.573 159.292 112.056C160.596 114.54 161.248 117.304 161.248 120.346C161.248 122.954 160.752 125.314 159.758 127.425C158.765 129.475 157.43 131.275 155.753 132.828C154.138 134.318 152.244 135.622 150.071 136.74C147.898 137.796 145.662 138.665 143.365 139.348C141.129 139.969 138.863 140.435 136.565 140.745C134.267 141.056 132.125 141.211 130.138 141.211C129.703 141.211 128.958 141.18 127.902 141.118C126.847 141.118 125.76 141.087 124.642 141.025C123.525 140.963 122.5 140.932 121.569 140.932C120.699 140.869 120.233 140.838 120.171 140.838L119.985 137.392L116.446 94.452ZM121.755 93.9862C121.755 94.1104 121.755 94.3588 121.755 94.7314C121.755 95.104 121.755 95.5387 121.755 96.0354C121.817 96.4701 121.848 96.8738 121.848 97.2463C121.848 97.6189 121.848 97.8984 121.848 98.0846C121.91 99.0161 121.972 100.506 122.034 102.556C122.158 104.605 122.252 106.933 122.314 109.542C122.438 112.15 122.562 114.882 122.686 117.738C122.873 120.533 123.028 123.234 123.152 125.842C123.276 128.388 123.369 130.717 123.431 132.828C123.556 134.877 123.618 136.398 123.618 137.392C123.99 137.392 124.58 137.423 125.388 137.485C126.257 137.485 127.157 137.516 128.089 137.578C129.02 137.578 129.89 137.609 130.697 137.671C131.566 137.671 132.187 137.671 132.56 137.671C135.416 137.671 138.242 137.33 141.036 136.647C143.83 135.902 146.314 134.815 148.488 133.387C150.723 131.896 152.524 130.002 153.89 127.705C155.318 125.345 156.032 122.52 156.032 119.229C156.032 116.807 155.473 114.509 154.356 112.336C153.238 110.1 151.748 108.051 149.885 106.188C148.084 104.325 146.004 102.649 143.644 101.158C141.284 99.6681 138.831 98.3951 136.286 97.3395C133.802 96.2217 131.287 95.3834 128.741 94.8246C126.257 94.2657 123.928 93.9862 121.755 93.9862Z" fill="#3481CB"/>
<path d="M164.322 75.4503C164.322 74.7052 164.571 74.1152 165.067 73.6806C165.626 73.1838 166.278 72.9354 167.023 72.9354C167.086 72.9354 167.241 72.9354 167.489 72.9354C167.738 72.9354 167.893 72.9354 167.955 72.9354C168.265 78.1515 168.545 83.1193 168.793 87.8387C169.042 92.4959 169.228 97.0911 169.352 101.624C169.538 106.157 169.663 110.69 169.725 115.223C169.787 119.694 169.818 124.383 169.818 129.288C169.818 129.971 169.849 130.903 169.911 132.083C170.035 133.263 170.128 134.411 170.19 135.529C170.315 136.647 170.408 137.671 170.47 138.603C170.594 139.472 170.656 139.938 170.656 140L166.651 140.745C166.527 138.199 166.403 135.281 166.278 131.99C166.154 128.636 166.03 125.097 165.906 121.371C165.844 117.583 165.751 113.702 165.626 109.728C165.564 105.692 165.44 101.717 165.254 97.8052C165.13 93.8931 164.974 90.1362 164.788 86.5346C164.664 82.8709 164.509 79.5487 164.322 76.5681V75.4503Z" fill="#3481CB"/>
<path d="M199.531 110.566C198.6 109.2 197.327 107.523 195.712 105.536C194.16 103.549 192.483 101.407 190.682 99.1092C188.882 96.7496 187.019 94.3278 185.094 91.8439C183.169 89.36 181.368 86.9693 179.691 84.6717C178.077 82.312 176.649 80.1386 175.407 78.1515C174.165 76.1023 173.264 74.3636 172.705 72.9354L174.568 71.2588C176.866 73.7427 178.853 76.0402 180.53 78.1515C182.268 80.2007 183.821 82.1568 185.187 84.0197C186.553 85.8205 187.795 87.5592 188.913 89.2358C190.03 90.9125 191.179 92.6201 192.359 94.3588C193.601 96.0354 194.936 97.7742 196.364 99.575C197.793 101.314 199.469 103.177 201.394 105.164C201.767 103.425 202.108 101.5 202.419 99.3887C202.791 97.2153 203.164 94.9798 203.536 92.6822C203.909 90.3846 204.313 88.056 204.747 85.6963C205.182 83.2745 205.679 80.9769 206.238 78.8036C206.797 76.5681 207.387 74.4878 208.007 72.5628C208.691 70.6378 209.467 68.9922 210.336 67.6261C210.398 67.564 210.522 67.533 210.709 67.533C210.957 67.533 211.143 67.533 211.268 67.533C211.454 67.533 211.702 67.564 212.013 67.6261C212.385 67.6882 212.727 67.8124 213.037 67.9987C213.348 68.1229 213.596 68.3092 213.782 68.5576C213.969 68.8059 214 69.0854 213.876 69.3959C213.193 70.8241 212.478 72.7491 211.733 75.1709C211.05 77.5927 210.367 80.3249 209.684 83.3677C209.063 86.3483 208.473 89.6084 207.914 93.1479C207.355 96.6254 206.828 100.165 206.331 103.767C205.896 107.368 205.493 110.97 205.12 114.571C204.747 118.111 204.468 121.433 204.282 124.538C204.095 127.643 204.002 130.468 204.002 133.014C204.064 135.56 204.22 137.609 204.468 139.162C204.344 139.845 204.22 140.373 204.095 140.745C204.033 141.056 203.847 141.304 203.536 141.49C203.226 141.677 202.76 141.77 202.139 141.77C201.518 141.832 200.649 141.863 199.531 141.863V110.566Z" fill="#3481CB"/>
<path d="M75.6541 144.02C75.2527 144.745 75.5149 145.658 76.2397 146.059C76.9644 146.46 77.8773 146.198 78.2786 145.473L75.6541 144.02ZM211.453 55.5657L195.582 48.6311L197.512 65.8437L211.453 55.5657ZM102.309 98.9793L100.996 98.2527L102.309 98.9793ZM78.2786 145.473L103.621 99.7059L100.996 98.2527L75.6541 144.02L78.2786 145.473ZM121.795 82.2804L154.097 66.1292L152.756 63.446L120.453 79.5971L121.795 82.2804ZM168.367 61.9072L198.205 58.5609L197.87 55.5796L168.033 58.9259L168.367 61.9072ZM154.097 66.1292C158.569 63.8936 163.399 62.4643 168.367 61.9072L168.033 58.9259C162.714 59.5223 157.543 61.0525 152.756 63.446L154.097 66.1292ZM103.621 99.7059C107.78 92.1951 114.116 86.1199 121.795 82.2804L120.453 79.5971C112.232 83.7076 105.449 90.2116 100.996 98.2527L103.621 99.7059Z" fill="#3481CB"/>
<path d="M78.3969 53.6581L75.0586 147.608L228.145 149.516" stroke="#4E423A" stroke-width="3" stroke-linecap="round"/>
<mask id="mask0_538_183" style="mask-type:alpha" maskUnits="userSpaceOnUse" x="16" y="-8" width="335" height="336">
<path d="M16.1519 4.80636C16.1519 -1.82106 21.5244 -7.19363 28.1519 -7.19363H339C345.628 -7.19363 351 -1.82105 351 4.80637V318.655C351 323.625 346.971 327.655 342 327.655H28.1518C21.5244 327.655 16.1519 322.282 16.1519 315.655V4.80636Z" fill="#FBFBFF"/>
</mask>
<g mask="url(#mask0_538_183)">
</g>
<defs>
<filter id="filter0_d_538_183" x="39.5835" y="36.0126" width="218.315" height="265.528" filterUnits="userSpaceOnUse" color-interpolation-filters="sRGB">
<feFlood flood-opacity="0" result="BackgroundImageFix"/>
<feColorMatrix in="SourceAlpha" type="matrix" values="0 0 0 0 0 0 0 0 0 0 0 0 0 0 0 0 0 0 127 0" result="hardAlpha"/>
<feOffset dy="4"/>
<feGaussianBlur stdDeviation="2"/>
<feComposite in2="hardAlpha" operator="out"/>
<feColorMatrix type="matrix" values="0 0 0 0 0 0 0 0 0 0 0 0 0 0 0 0 0 0 0.25 0"/>
<feBlend mode="normal" in2="BackgroundImageFix" result="effect1_dropShadow_538_183"/>
<feBlend mode="normal" in="SourceGraphic" in2="effect1_dropShadow_538_183" result="shape"/>
</filter>
<filter id="filter1_d_538_183" x="51.0293" y="173.361" width="194.946" height="89.0738" filterUnits="userSpaceOnUse" color-interpolation-filters="sRGB">
<feFlood flood-opacity="0" result="BackgroundImageFix"/>
<feColorMatrix in="SourceAlpha" type="matrix" values="0 0 0 0 0 0 0 0 0 0 0 0 0 0 0 0 0 0 127 0" result="hardAlpha"/>
<feOffset dy="4"/>
<feGaussianBlur stdDeviation="2"/>
<feComposite in2="hardAlpha" operator="out"/>
<feColorMatrix type="matrix" values="0 0 0 0 0 0 0 0 0 0 0 0 0 0 0 0 0 0 0.25 0"/>
<feBlend mode="normal" in2="BackgroundImageFix" result="effect1_dropShadow_538_183"/>
<feBlend mode="normal" in="SourceGraphic" in2="effect1_dropShadow_538_183" result="shape"/>
</filter>
<filter id="filter2_d_538_183" x="79.1655" y="178.13" width="24.6919" height="80.4895" filterUnits="userSpaceOnUse" color-interpolation-filters="sRGB">
<feFlood flood-opacity="0" result="BackgroundImageFix"/>
<feColorMatrix in="SourceAlpha" type="matrix" values="0 0 0 0 0 0 0 0 0 0 0 0 0 0 0 0 0 0 127 0" result="hardAlpha"/>
<feOffset dy="4"/>
<feGaussianBlur stdDeviation="2"/>
<feComposite in2="hardAlpha" operator="out"/>
<feColorMatrix type="matrix" values="0 0 0 0 0 0 0 0 0 0 0 0 0 0 0 0 0 0 0.25 0"/>
<feBlend mode="normal" in2="BackgroundImageFix" result="effect1_dropShadow_538_183"/>
<feBlend mode="normal" in="SourceGraphic" in2="effect1_dropShadow_538_183" result="shape"/>
</filter>
<filter id="filter3_d_538_183" x="149.748" y="178.13" width="22.3071" height="80.4895" filterUnits="userSpaceOnUse" color-interpolation-filters="sRGB">
<feFlood flood-opacity="0" result="BackgroundImageFix"/>
<feColorMatrix in="SourceAlpha" type="matrix" values="0 0 0 0 0 0 0 0 0 0 0 0 0 0 0 0 0 0 127 0" result="hardAlpha"/>
<feOffset dy="4"/>
<feGaussianBlur stdDeviation="2"/>
<feComposite in2="hardAlpha" operator="out"/>
<feColorMatrix type="matrix" values="0 0 0 0 0 0 0 0 0 0 0 0 0 0 0 0 0 0 0.25 0"/>
<feBlend mode="normal" in2="BackgroundImageFix" result="effect1_dropShadow_538_183"/>
<feBlend mode="normal" in="SourceGraphic" in2="effect1_dropShadow_538_183" result="shape"/>
</filter>
<filter id="filter4_d_538_183" x="176.455" y="178.13" width="27.0762" height="80.4895" filterUnits="userSpaceOnUse" color-interpolation-filters="sRGB">
<feFlood flood-opacity="0" result="BackgroundImageFix"/>
<feColorMatrix in="SourceAlpha" type="matrix" values="0 0 0 0 0 0 0 0 0 0 0 0 0 0 0 0 0 0 127 0" result="hardAlpha"/>
<feOffset dy="4"/>
<feGaussianBlur stdDeviation="2"/>
<feComposite in2="hardAlpha" operator="out"/>
<feColorMatrix type="matrix" values="0 0 0 0 0 0 0 0 0 0 0 0 0 0 0 0 0 0 0.25 0"/>
<feBlend mode="normal" in2="BackgroundImageFix" result="effect1_dropShadow_538_183"/>
<feBlend mode="normal" in="SourceGraphic" in2="effect1_dropShadow_538_183" result="shape"/>
</filter>
<filter id="filter5_d_538_183" x="203.161" y="178.13" width="29.4609" height="79.0587" filterUnits="userSpaceOnUse" color-interpolation-filters="sRGB">
<feFlood flood-opacity="0" result="BackgroundImageFix"/>
<feColorMatrix in="SourceAlpha" type="matrix" values="0 0 0 0 0 0 0 0 0 0 0 0 0 0 0 0 0 0 127 0" result="hardAlpha"/>
<feOffset dy="4"/>
<feGaussianBlur stdDeviation="2"/>
<feComposite in2="hardAlpha" operator="out"/>
<feColorMatrix type="matrix" values="0 0 0 0 0 0 0 0 0 0 0 0 0 0 0 0 0 0 0.25 0"/>
<feBlend mode="normal" in2="BackgroundImageFix" result="effect1_dropShadow_538_183"/>
<feBlend mode="normal" in="SourceGraphic" in2="effect1_dropShadow_538_183" result="shape"/>
</filter>
<filter id="filter6_d_538_183" x="116.365" y="178.13" width="22.3071" height="80.4895" filterUnits="userSpaceOnUse" color-interpolation-filters="sRGB">
<feFlood flood-opacity="0" result="BackgroundImageFix"/>
<feColorMatrix in="SourceAlpha" type="matrix" values="0 0 0 0 0 0 0 0 0 0 0 0 0 0 0 0 0 0 127 0" result="hardAlpha"/>
<feOffset dy="4"/>
<feGaussianBlur stdDeviation="2"/>
<feComposite in2="hardAlpha" operator="out"/>
<feColorMatrix type="matrix" values="0 0 0 0 0 0 0 0 0 0 0 0 0 0 0 0 0 0 0.25 0"/>
<feBlend mode="normal" in2="BackgroundImageFix" result="effect1_dropShadow_538_183"/>
<feBlend mode="normal" in="SourceGraphic" in2="effect1_dropShadow_538_183" result="shape"/>
</filter>
<filter id="filter7_d_538_183" x="77.2588" y="220.098" width="27.3477" height="17.206" filterUnits="userSpaceOnUse" color-interpolation-filters="sRGB">
<feFlood flood-opacity="0" result="BackgroundImageFix"/>
<feColorMatrix in="SourceAlpha" type="matrix" values="0 0 0 0 0 0 0 0 0 0 0 0 0 0 0 0 0 0 127 0" result="hardAlpha"/>
<feOffset dy="4"/>
<feGaussianBlur stdDeviation="2"/>
<feComposite in2="hardAlpha" operator="out"/>
<feColorMatrix type="matrix" values="0 0 0 0 0 0 0 0 0 0 0 0 0 0 0 0 0 0 0.25 0"/>
<feBlend mode="normal" in2="BackgroundImageFix" result="effect1_dropShadow_538_183"/>
<feBlend mode="normal" in="SourceGraphic" in2="effect1_dropShadow_538_183" result="shape"/>
</filter>
<filter id="filter8_d_538_183" x="114.556" y="204.112" width="27.1489" height="16.7475" filterUnits="userSpaceOnUse" color-interpolation-filters="sRGB">
<feFlood flood-opacity="0" result="BackgroundImageFix"/>
<feColorMatrix in="SourceAlpha" type="matrix" values="0 0 0 0 0 0 0 0 0 0 0 0 0 0 0 0 0 0 127 0" result="hardAlpha"/>
<feOffset dy="4"/>
<feGaussianBlur stdDeviation="2"/>
<feComposite in2="hardAlpha" operator="out"/>
<feColorMatrix type="matrix" values="0 0 0 0 0 0 0 0 0 0 0 0 0 0 0 0 0 0 0.25 0"/>
<feBlend mode="normal" in2="BackgroundImageFix" result="effect1_dropShadow_538_183"/>
<feBlend mode="normal" in="SourceGraphic" in2="effect1_dropShadow_538_183" result="shape"/>
</filter>
<filter id="filter9_d_538_183" x="148.794" y="240.128" width="27.1489" height="16.7475" filterUnits="userSpaceOnUse" color-interpolation-filters="sRGB">
<feFlood flood-opacity="0" result="BackgroundImageFix"/>
<feColorMatrix in="SourceAlpha" type="matrix" values="0 0 0 0 0 0 0 0 0 0 0 0 0 0 0 0 0 0 127 0" result="hardAlpha"/>
<feOffset dy="4"/>
<feGaussianBlur stdDeviation="2"/>
<feComposite in2="hardAlpha" operator="out"/>
<feColorMatrix type="matrix" values="0 0 0 0 0 0 0 0 0 0 0 0 0 0 0 0 0 0 0.25 0"/>
<feBlend mode="normal" in2="BackgroundImageFix" result="effect1_dropShadow_538_183"/>
<feBlend mode="normal" in="SourceGraphic" in2="effect1_dropShadow_538_183" result="shape"/>
</filter>
<filter id="filter10_d_538_183" x="176.455" y="206.744" width="27.6694" height="17.9987" filterUnits="userSpaceOnUse" color-interpolation-filters="sRGB">
<feFlood flood-opacity="0" result="BackgroundImageFix"/>
<feColorMatrix in="SourceAlpha" type="matrix" values="0 0 0 0 0 0 0 0 0 0 0 0 0 0 0 0 0 0 127 0" result="hardAlpha"/>
<feOffset dy="4"/>
<feGaussianBlur stdDeviation="2"/>
<feComposite in2="hardAlpha" operator="out"/>
<feColorMatrix type="matrix" values="0 0 0 0 0 0 0 0 0 0 0 0 0 0 0 0 0 0 0.25 0"/>
<feBlend mode="normal" in2="BackgroundImageFix" result="effect1_dropShadow_538_183"/>
<feBlend mode="normal" in="SourceGraphic" in2="effect1_dropShadow_538_183" result="shape"/>
</filter>
<filter id="filter11_d_538_183" x="206.977" y="228.682" width="27.5186" height="17.618" filterUnits="userSpaceOnUse" color-interpolation-filters="sRGB">
<feFlood flood-opacity="0" result="BackgroundImageFix"/>
<feColorMatrix in="SourceAlpha" type="matrix" values="0 0 0 0 0 0 0 0 0 0 0 0 0 0 0 0 0 0 127 0" result="hardAlpha"/>
<feOffset dy="4"/>
<feGaussianBlur stdDeviation="2"/>
<feComposite in2="hardAlpha" operator="out"/>
<feColorMatrix type="matrix" values="0 0 0 0 0 0 0 0 0 0 0 0 0 0 0 0 0 0 0.25 0"/>
<feBlend mode="normal" in2="BackgroundImageFix" result="effect1_dropShadow_538_183"/>
<feBlend mode="normal" in="SourceGraphic" in2="effect1_dropShadow_538_183" result="shape"/>
</filter>
<filter id="filter12_d_538_183" x="174.777" y="163.346" width="145.118" height="204.485" filterUnits="userSpaceOnUse" color-interpolation-filters="sRGB">
<feFlood flood-opacity="0" result="BackgroundImageFix"/>
<feColorMatrix in="SourceAlpha" type="matrix" values="0 0 0 0 0 0 0 0 0 0 0 0 0 0 0 0 0 0 127 0" result="hardAlpha"/>
<feOffset dy="4"/>
<feGaussianBlur stdDeviation="2"/>
<feComposite in2="hardAlpha" operator="out"/>
<feColorMatrix type="matrix" values="0 0 0 0 0 0 0 0 0 0 0 0 0 0 0 0 0 0 0.25 0"/>
<feBlend mode="normal" in2="BackgroundImageFix" result="effect1_dropShadow_538_183"/>
<feBlend mode="normal" in="SourceGraphic" in2="effect1_dropShadow_538_183" result="shape"/>
</filter>
<filter id="filter13_d_538_183" x="0" y="170.977" width="148.732" height="196.377" filterUnits="userSpaceOnUse" color-interpolation-filters="sRGB">
<feFlood flood-opacity="0" result="BackgroundImageFix"/>
<feColorMatrix in="SourceAlpha" type="matrix" values="0 0 0 0 0 0 0 0 0 0 0 0 0 0 0 0 0 0 127 0" result="hardAlpha"/>
<feOffset dy="4"/>
<feGaussianBlur stdDeviation="2"/>
<feComposite in2="hardAlpha" operator="out"/>
<feColorMatrix type="matrix" values="0 0 0 0 0 0 0 0 0 0 0 0 0 0 0 0 0 0 0.25 0"/>
<feBlend mode="normal" in2="BackgroundImageFix" result="effect1_dropShadow_538_183"/>
<feBlend mode="normal" in="SourceGraphic" in2="effect1_dropShadow_538_183" result="shape"/>
</filter>
<filter id="filter14_d_538_183" x="59.6128" y="43.643" width="183.501" height="123.888" filterUnits="userSpaceOnUse" color-interpolation-filters="sRGB">
<feFlood flood-opacity="0" result="BackgroundImageFix"/>
<feColorMatrix in="SourceAlpha" type="matrix" values="0 0 0 0 0 0 0 0 0 0 0 0 0 0 0 0 0 0 127 0" result="hardAlpha"/>
<feOffset dy="4"/>
<feGaussianBlur stdDeviation="2"/>
<feComposite in2="hardAlpha" operator="out"/>
<feColorMatrix type="matrix" values="0 0 0 0 0 0 0 0 0 0 0 0 0 0 0 0 0 0 0.25 0"/>
<feBlend mode="normal" in2="BackgroundImageFix" result="effect1_dropShadow_538_183"/>
<feBlend mode="normal" in="SourceGraphic" in2="effect1_dropShadow_538_183" result="shape"/>
</filter>
</defs>
</svg>
